<?xml version="1.0" encoding="UTF-8" standalone="no"?>
<!DOCTYPE svg PUBLIC "-//W3C//DTD SVG 1.1//EN"
 "http://www.w3.org/Graphics/SVG/1.1/DTD/svg11.dtd">
<!-- Generated by graphviz version 5.0.0 (20220707.1540)
 -->
<!-- Title: dependencies Pages: 1 -->
<svg width="246pt" height="174pt"
 viewBox="0.00 0.00 246.00 173.80" xmlns="http://www.w3.org/2000/svg" xmlns:xlink="http://www.w3.org/1999/xlink">
<g id="graph0" class="graph" transform="scale(1 1) rotate(0) translate(4 169.8)">
<title>dependencies</title>
<polygon fill="white" stroke="transparent" points="-4,4 -4,-169.8 242,-169.8 242,4 -4,4"/>
<text text-anchor="middle" x="119" y="-8.2" font-family="sans-serif" font-size="14.00">dependencies</text>
<g id="clust1" class="cluster">
<title>cluster_ApiModule</title>
<polygon fill="none" stroke="black" stroke-dasharray="1,5" points="8,-32.8 8,-157.8 230,-157.8 230,-32.8 8,-32.8"/>
</g>
<g id="clust3" class="cluster">
<title>cluster_ApiModule_imports</title>
<polygon fill="none" stroke="black" points="16,-40.8 16,-92.8 222,-92.8 222,-40.8 16,-40.8"/>
</g>
<!-- RoleModule -->
<g id="node1" class="node">
<title>RoleModule</title>
<polygon fill="#8dd3c7" stroke="black" points="213.99,-84.8 210.99,-88.8 189.99,-88.8 186.99,-84.8 128.01,-84.8 128.01,-48.8 213.99,-48.8 213.99,-84.8"/>
<text text-anchor="middle" x="171" y="-62.6" font-family="Times,serif" font-size="14.00">RoleModule</text>
</g>
<!-- ApiModule -->
<g id="node3" class="node">
<title>ApiModule</title>
<polygon fill="#8dd3c7" stroke="black" points="159.05,-149.8 156.05,-153.8 135.05,-153.8 132.05,-149.8 78.95,-149.8 78.95,-113.8 159.05,-113.8 159.05,-149.8"/>
<text text-anchor="middle" x="119" y="-127.6" font-family="Times,serif" font-size="14.00">ApiModule</text>
</g>
<!-- RoleModule&#45;&gt;ApiModule -->
<g id="edge1" class="edge">
<title>RoleModule&#45;&gt;ApiModule</title>
<path fill="none" stroke="black" d="M143.64,-84.91C143.64,-84.91 143.64,-103.79 143.64,-103.79"/>
<polygon fill="black" stroke="black" points="140.14,-103.79 143.64,-113.79 147.14,-103.79 140.14,-103.79"/>
</g>
<!-- UserModule -->
<g id="node2" class="node">
<title>UserModule</title>
<polygon fill="#8dd3c7" stroke="black" points="109.99,-84.8 106.99,-88.8 85.99,-88.8 82.99,-84.8 24.01,-84.8 24.01,-48.8 109.99,-48.8 109.99,-84.8"/>
<text text-anchor="middle" x="67" y="-62.6" font-family="Times,serif" font-size="14.00">UserModule</text>
</g>
<!-- UserModule&#45;&gt;ApiModule -->
<g id="edge2" class="edge">
<title>UserModule&#45;&gt;ApiModule</title>
<path fill="none" stroke="black" d="M94.36,-84.91C94.36,-84.91 94.36,-103.79 94.36,-103.79"/>
<polygon fill="black" stroke="black" points="90.86,-103.79 94.36,-113.79 97.86,-103.79 90.86,-103.79"/>
</g>
</g>
</svg>
