<?xml version="1.0" encoding="UTF-8" standalone="no"?>
<!DOCTYPE svg PUBLIC "-//W3C//DTD SVG 1.1//EN"
 "http://www.w3.org/Graphics/SVG/1.1/DTD/svg11.dtd">
<!-- Generated by graphviz version 5.0.0 (20220707.1540)
 -->
<!-- Title: dependencies Pages: 1 -->
<svg width="750pt" height="386pt"
 viewBox="0.00 0.00 750.00 385.80" xmlns="http://www.w3.org/2000/svg" xmlns:xlink="http://www.w3.org/1999/xlink">
<g id="graph0" class="graph" transform="scale(1 1) rotate(0) translate(4 381.8)">
<title>dependencies</title>
<polygon fill="white" stroke="transparent" points="-4,4 -4,-381.8 746,-381.8 746,4 -4,4"/>
<text text-anchor="middle" x="371" y="-8.2" font-family="sans-serif" font-size="14.00">dependencies</text>
<g id="clust1" class="cluster">
<title>cluster_ApiModule</title>
<polygon fill="none" stroke="black" stroke-dasharray="1,5" points="341,-176.8 341,-304.8 563,-304.8 563,-176.8 341,-176.8"/>
</g>
<g id="clust3" class="cluster">
<title>cluster_ApiModule_imports</title>
<polygon fill="none" stroke="black" points="349,-184.8 349,-236.8 555,-236.8 555,-184.8 349,-184.8"/>
</g>
<g id="clust7" class="cluster">
<title>cluster_AppModule</title>
<polygon fill="none" stroke="black" stroke-dasharray="1,5" points="187,-244.8 187,-369.8 333,-369.8 333,-244.8 187,-244.8"/>
</g>
<g id="clust12" class="cluster">
<title>cluster_AppModule_providers</title>
<polygon fill="none" stroke="black" points="195,-252.8 195,-304.8 325,-304.8 325,-252.8 195,-252.8"/>
</g>
<g id="clust13" class="cluster">
<title>cluster_AuthModule</title>
<polygon fill="none" stroke="black" stroke-dasharray="1,5" points="8,-32.8 8,-160.8 422,-160.8 422,-32.8 8,-32.8"/>
</g>
<g id="clust18" class="cluster">
<title>cluster_AuthModule_providers</title>
<polygon fill="none" stroke="black" points="16,-40.8 16,-92.8 414,-92.8 414,-40.8 16,-40.8"/>
</g>
<g id="clust19" class="cluster">
<title>cluster_RoleModule</title>
<polygon fill="none" stroke="black" stroke-dasharray="1,5" points="430,-100.8 430,-168.8 578,-168.8 578,-100.8 430,-100.8"/>
</g>
<g id="clust24" class="cluster">
<title>cluster_RoleModule_providers</title>
<polygon fill="none" stroke="black" points="438,-108.8 438,-160.8 570,-160.8 570,-108.8 438,-108.8"/>
</g>
<g id="clust25" class="cluster">
<title>cluster_UserModule</title>
<polygon fill="none" stroke="black" stroke-dasharray="1,5" points="586,-100.8 586,-168.8 734,-168.8 734,-100.8 586,-100.8"/>
</g>
<g id="clust30" class="cluster">
<title>cluster_UserModule_providers</title>
<polygon fill="none" stroke="black" points="594,-108.8 594,-160.8 726,-160.8 726,-108.8 594,-108.8"/>
</g>
<!-- RoleModule -->
<g id="node1" class="node">
<title>RoleModule</title>
<polygon fill="#8dd3c7" stroke="black" points="546.99,-228.8 543.99,-232.8 522.99,-232.8 519.99,-228.8 461.01,-228.8 461.01,-192.8 546.99,-192.8 546.99,-228.8"/>
<text text-anchor="middle" x="504" y="-206.6" font-family="Times,serif" font-size="14.00">RoleModule</text>
</g>
<!-- ApiModule -->
<g id="node3" class="node">
<title>ApiModule</title>
<polygon fill="#8dd3c7" stroke="black" points="440.05,-296.8 437.05,-300.8 416.05,-300.8 413.05,-296.8 359.95,-296.8 359.95,-260.8 440.05,-260.8 440.05,-296.8"/>
<text text-anchor="middle" x="400" y="-274.6" font-family="Times,serif" font-size="14.00">ApiModule</text>
</g>
<!-- RoleModule&#45;&gt;ApiModule -->
<g id="edge1" class="edge">
<title>RoleModule&#45;&gt;ApiModule</title>
<path fill="none" stroke="black" d="M504,-229.02C504,-249.17 504,-278.8 504,-278.8 504,-278.8 450.21,-278.8 450.21,-278.8"/>
<polygon fill="black" stroke="black" points="450.21,-275.3 440.21,-278.8 450.21,-282.3 450.21,-275.3"/>
</g>
<!-- UserModule -->
<g id="node2" class="node">
<title>UserModule</title>
<polygon fill="#8dd3c7" stroke="black" points="442.99,-228.8 439.99,-232.8 418.99,-232.8 415.99,-228.8 357.01,-228.8 357.01,-192.8 442.99,-192.8 442.99,-228.8"/>
<text text-anchor="middle" x="400" y="-206.6" font-family="Times,serif" font-size="14.00">UserModule</text>
</g>
<!-- UserModule&#45;&gt;ApiModule -->
<g id="edge2" class="edge">
<title>UserModule&#45;&gt;ApiModule</title>
<path fill="none" stroke="black" d="M400,-229.02C400,-229.02 400,-250.53 400,-250.53"/>
<polygon fill="black" stroke="black" points="396.5,-250.53 400,-260.53 403.5,-250.53 396.5,-250.53"/>
</g>
<!-- AppModule -->
<g id="node4" class="node">
<title>AppModule</title>
<polygon fill="#8dd3c7" stroke="black" points="312.66,-361.8 309.66,-365.8 288.66,-365.8 285.66,-361.8 229.34,-361.8 229.34,-325.8 312.66,-325.8 312.66,-361.8"/>
<text text-anchor="middle" x="271" y="-339.6" font-family="Times,serif" font-size="14.00">AppModule</text>
</g>
<!-- ApiModule&#45;&gt;AppModule -->
<g id="edge3" class="edge">
<title>ApiModule&#45;&gt;AppModule</title>
<path fill="none" stroke="black" d="M400,-296.91C400,-316.14 400,-343.8 400,-343.8 400,-343.8 322.88,-343.8 322.88,-343.8"/>
<polygon fill="black" stroke="black" points="322.88,-340.3 312.88,-343.8 322.88,-347.3 322.88,-340.3"/>
</g>
<!-- AppService -->
<g id="node5" class="node">
<title>AppService</title>
<ellipse fill="#fdb462" stroke="black" cx="260" cy="-278.8" rx="56.75" ry="18"/>
<text text-anchor="middle" x="260" y="-274.6" font-family="Times,serif" font-size="14.00">AppService</text>
</g>
<!-- AppService&#45;&gt;AppModule -->
<g id="edge4" class="edge">
<title>AppService&#45;&gt;AppModule</title>
<path fill="none" stroke="black" d="M271,-296.56C271,-296.56 271,-315.61 271,-315.61"/>
<polygon fill="black" stroke="black" points="267.5,-315.61 271,-325.61 274.5,-315.61 267.5,-315.61"/>
</g>
<!-- AuthHelper -->
<g id="node6" class="node">
<title>AuthHelper</title>
<ellipse fill="#fdb462" stroke="black" cx="349" cy="-66.8" rx="56.75" ry="18"/>
<text text-anchor="middle" x="349" y="-62.6" font-family="Times,serif" font-size="14.00">AuthHelper</text>
</g>
<!-- AuthModule -->
<g id="node9" class="node">
<title>AuthModule</title>
<polygon fill="#8dd3c7" stroke="black" points="325.55,-152.8 322.55,-156.8 301.55,-156.8 298.55,-152.8 238.45,-152.8 238.45,-116.8 325.55,-116.8 325.55,-152.8"/>
<text text-anchor="middle" x="282" y="-130.6" font-family="Times,serif" font-size="14.00">AuthModule</text>
</g>
<!-- AuthHelper&#45;&gt;AuthModule -->
<g id="edge5" class="edge">
<title>AuthHelper&#45;&gt;AuthModule</title>
<path fill="none" stroke="black" d="M309.08,-79.59C309.08,-79.59 309.08,-106.68 309.08,-106.68"/>
<polygon fill="black" stroke="black" points="305.58,-106.68 309.08,-116.68 312.58,-106.68 305.58,-106.68"/>
</g>
<!-- AuthService -->
<g id="node7" class="node">
<title>AuthService</title>
<ellipse fill="#fdb462" stroke="black" cx="215" cy="-66.8" rx="59.11" ry="18"/>
<text text-anchor="middle" x="215" y="-62.6" font-family="Times,serif" font-size="14.00">AuthService</text>
</g>
<!-- AuthService&#45;&gt;AuthModule -->
<g id="edge6" class="edge">
<title>AuthService&#45;&gt;AuthModule</title>
<path fill="none" stroke="black" d="M256.27,-79.91C256.27,-79.91 256.27,-106.59 256.27,-106.59"/>
<polygon fill="black" stroke="black" points="252.77,-106.59 256.27,-116.59 259.77,-106.59 252.77,-106.59"/>
</g>
<!-- JwtStrategy -->
<g id="node8" class="node">
<title>JwtStrategy</title>
<ellipse fill="#fdb462" stroke="black" cx="81" cy="-66.8" rx="56.77" ry="18"/>
<text text-anchor="middle" x="81" y="-62.6" font-family="Times,serif" font-size="14.00">JwtStrategy</text>
</g>
<!-- JwtStrategy&#45;&gt;AuthModule -->
<g id="edge7" class="edge">
<title>JwtStrategy&#45;&gt;AuthModule</title>
<path fill="none" stroke="black" d="M81,-85.02C81,-105.17 81,-134.8 81,-134.8 81,-134.8 228.39,-134.8 228.39,-134.8"/>
<polygon fill="black" stroke="black" points="228.39,-138.3 238.39,-134.8 228.39,-131.3 228.39,-138.3"/>
</g>
<!-- AuthModule&#45;&gt;UserModule -->
<g id="edge9" class="edge">
<title>AuthModule&#45;&gt;UserModule</title>
<path fill="none" stroke="black" d="M321.2,-152.81C321.2,-175.29 321.2,-210.8 321.2,-210.8 321.2,-210.8 346.91,-210.8 346.91,-210.8"/>
<polygon fill="black" stroke="black" points="346.91,-214.3 356.91,-210.8 346.91,-207.3 346.91,-214.3"/>
</g>
<!-- RoleService -->
<g id="node10" class="node">
<title>RoleService</title>
<ellipse fill="#fdb462" stroke="black" cx="504" cy="-134.8" rx="58.46" ry="18"/>
<text text-anchor="middle" x="504" y="-130.6" font-family="Times,serif" font-size="14.00">RoleService</text>
</g>
<!-- RoleService&#45;&gt;RoleModule -->
<g id="edge8" class="edge">
<title>RoleService&#45;&gt;RoleModule</title>
<path fill="none" stroke="black" d="M504,-152.81C504,-152.81 504,-182.65 504,-182.65"/>
<polygon fill="black" stroke="black" points="500.5,-182.65 504,-192.65 507.5,-182.65 500.5,-182.65"/>
</g>
<!-- UserService -->
<g id="node11" class="node">
<title>UserService</title>
<ellipse fill="#fdb462" stroke="black" cx="660" cy="-134.8" rx="58.46" ry="18"/>
<text text-anchor="middle" x="660" y="-130.6" font-family="Times,serif" font-size="14.00">UserService</text>
</g>
<!-- UserService&#45;&gt;UserModule -->
<g id="edge10" class="edge">
<title>UserService&#45;&gt;UserModule</title>
<path fill="none" stroke="black" d="M660,-152.91C660,-162.7 660,-172.8 660,-172.8 660,-172.8 424.31,-172.8 424.31,-172.8 424.31,-172.8 424.31,-182.69 424.31,-182.69"/>
<polygon fill="black" stroke="black" points="420.81,-182.69 424.31,-192.69 427.81,-182.69 420.81,-182.69"/>
</g>
</g>
</svg>
